PathFileType	4	(X/Y/Z)	Kaydara																																																																																																																									
DataRate	CameraRate	NumFrames	NumMarkers	Units	OrigDataRate	OrigDataStartFrame	OrigNumFrames																																																																																																																					
30	30	5	41	mm	30	65	128																																																																																																																					
Frame#	Time	EMLA_LFHD			EMLA_RFHD			EMLA_LBHD			EMLA_RBHD			EMLA_LFTShould			EMLA_RFTShould			EMLA_LRRShould			EMLA_RRRShould			EMLA_T10			EMLA_STRN			EMLA_TRUN			EMLA_LSHO			EMLA_LUPA			EMLA_LELB			EMLA_LFRM			EMLA_LWRA			EMLA_LWRB			EMLA_LFIN			EMLA_RSHO			EMLA_RUPA			EMLA_RELB			EMLA_RFRM			EMLA_RWRA			EMLA_RWRB			EMLA_RFIN			EMLA_LFWT			EMLA_RFWT			EMLA_LBWT			EMLA_RBWT			EMLA_LTHI			EMLA_LKNE			EMLA_LSHN			EMLA_LANK			EMLA_LHEE			EMLA_LTOE			EMLA_RTHI			EMLA_RKNE			EMLA_RSHN			EMLA_RANK			EMLA_RHEE			EMLA_RTOE		
		X1	Y1	Z1	X2	Y2	Z2	X3	Y3	Z3	X4	Y4	Z4	X5	Y5	Z5	X6	Y6	Z6	X7	Y7	Z7	X8	Y8	Z8	X9	Y9	Z9	X10	Y10	Z10	X11	Y11	Z11	X12	Y12	Z12	X13	Y13	Z13	X14	Y14	Z14	X15	Y15	Z15	X16	Y16	Z16	X17	Y17	Z17	X18	Y18	Z18	X19	Y19	Z19	X20	Y20	Z20	X21	Y21	Z21	X22	Y22	Z22	X23	Y23	Z23	X24	Y24	Z24	X25	Y25	Z25	X26	Y26	Z26	X27	Y27	Z27	X28	Y28	Z28	X29	Y29	Z29	X30	Y30	Z30	X31	Y31	Z31	X32	Y32	Z32	X33	Y33	Z33	X34	Y34	Z34	X35	Y35	Z35	X36	Y36	Z36	X37	Y37	Z37	X38	Y38	Z38	X39	Y39	Z39	X40	Y40	Z40	X41	Y41	Z41
																																																																																																																												
65	2.143	227.89419	1634.26926	-1004.87206	57.1803	1635.84747	-998.30475	235.11593	1610.54733	-1153.92136	40.70662	1614.97742	-1148.65456	223.41141	1406.97357	-1043.55042	77.4726	1392.64908	-1040.11337	207.74036	1462.62833	-1186.86775	54.83576	1448.55453	-1183.04939	148.13582	1293.67661	-1251.85059	153.77522	1327.85675	-1009.28596	151.96741	1222.76985	-1002.91374	343.00709	1440.63385	-1099.34502	421.07697	1285.76508	-1165.84999	460.86342	1154.99283	-1212.28302	479.15459	1022.28928	-1246.4048	423.56899	848.94745	-1206.07094	475.38712	857.5882	-1274.10774	479.35097	806.8528	-1226.46011	-49.21344	1425.49301	-1101.12312	-110.67313	1234.06227	-1097.00485	-133.09069	1091.287	-1113.62686	-133.45687	985.41145	-1102.89635	-70.35387	848.39935	-965.8168	-113.7746	816.15074	-1036.0215	-126.05572	794.29718	-975.56641	247.16463	976.03218	-1081.35658	12.71333	975.20988	-1115.48775	243.568	1009.54758	-1280.56198	69.07705	1027.02225	-1290.39627	304.53903	704.53659	-1188.96805	310.67465	527.74055	-1070.13435	274.32198	354.04861	-1130.76393	262.19961	240.21662	-1286.60339	187.13131	207.43217	-1373.55545	236.03952	90.21765	-1224.39606	36.77218	722.47948	-1322.1701	21.70689	513.04905	-1267.98737	82.82715	291.30653	-1270.18646	65.22976	134.56123	-1363.16238	127.83766	91.67706	-1416.47491	87.7798	63.52889	-1220.17197
66	2.177	227.57843	1625.56946	-955.18753	57.00372	1627.74475	-947.53212	233.80074	1603.32764	-1104.5591	39.4593	1608.55408	-1098.0397	223.46745	1398.54935	-997.07207	77.0114	1385.86288	-991.04256	202.30091	1454.36996	-1140.52299	50.51527	1440.50507	-1133.93417	142.0015	1285.49042	-1203.76526	153.7125	1320.79758	-961.51024	150.82754	1215.50652	-955.42397	339.67609	1433.97812	-1058.45131	418.0513	1284.40796	-1134.88388	458.42495	1156.52695	-1186.00426	479.10187	1025.37788	-1224.80621	434.31816	849.29703	-1183.34694	479.06803	861.04576	-1256.27762	490.12566	809.74747	-1210.62798	-50.55469	1419.12445	-1049.80972	-115.31754	1229.95468	-1035.12329	-141.18003	1086.93619	-1041.68869	-140.92161	981.30157	-1021.4006	-69.71648	858.09723	-875.35004	-115.1368	818.26729	-939.43001	-125.87717	803.60046	-876.75308	239.83438	969.50722	-1031.34895	6.30869	965.87509	-1070.47104	242.33932	1002.75574	-1230.13054	68.16602	1020.70374	-1243.27736	303.72772	702.1759	-1118.97217	304.07278	532.96738	-985.98274	266.2145	349.03976	-1016.44142	254.19649	207.30337	-1146.53954	180.01646	157.46571	-1227.04132	224.59286	76.35638	-1054.15771	42.46738	724.89563	-1293.22372	22.71173	511.25862	-1251.29585	83.45498	290.6234	-1262.40158	67.30497	137.13389	-1361.08917	130.6867	95.50166	-1414.90784	88.22606	62.85072	-1220.54543
67	2.21	227.53014	1609.86038	-904.18785	56.74189	1612.77649	-895.9864	233.01535	1588.37952	-1053.51578	38.69443	1594.61349	-1046.57692	222.65945	1382.50397	-949.90707	75.65646	1370.22491	-940.62332	197.98323	1439.30466	-1092.41104	46.47564	1425.41275	-1082.99789	136.68962	1270.86975	-1155.69786	153.02182	1305.01801	-913.67775	149.75118	1200.04539	-907.11441	336.73218	1418.66211	-1014.431	413.96954	1274.26186	-1098.30971	455.44117	1149.69704	-1155.23903	478.18199	1019.96277	-1198.80653	443.22826	841.89995	-1158.55896	482.05467	856.47583	-1234.35951	498.66734	805.10361	-1190.64232	-52.17068	1404.83765	-997.96455	-119.5937	1218.46657	-974.0303	-149.24159	1076.0231	-970.25536	-148.20053	971.80832	-940.57426	-69.50414	863.06366	-787.21138	-117.70041	817.22153	-844.49043	-126.00239	809.32846	-780.0631	233.39985	955.59792	-981.77963	1.58066	952.22229	-1025.49866	242.19025	988.97377	-1180.01686	68.0795	1007.06879	-1197.42455	295.74301	693.4494	-1055.63828	297.70504	532.13459	-909.93179	260.68508	343.86623	-906.16257	249.08506	177.02835	-1001.856	175.85192	110.23285	-1069.90921	218.92319	70.8986	-882.57713	45.07344	719.51073	-1258.43971	23.13371	504.54445	-1229.04137	86.56949	286.06039	-1250.94284	72.35396	137.28465	-1356.49841	136.56407	98.393	-1412.72873	89.99552	62.24241	-1219.78172
68	2.243	227.3131	1590.70267	-851.25603	56.55779	1594.99649	-842.948	232.44246	1568.44833	-1000.54398	38.25114	1576.19675	-993.47488	221.81252	1362.05246	-899.84627	73.59819	1348.07327	-887.66792	195.27582	1421.76529	-1040.50781	42.92419	1408.08685	-1028.39676	132.1087	1253.46367	-1107.01965	151.42738	1283.01849	-863.36014	148.08262	1177.90596	-859.14574	334.99187	1396.92001	-966.38832	409.9498	1256.2233	-1056.78452	452.45007	1134.53239	-1118.9724	477.6825	1007.276	-1166.62605	450.27554	827.06223	-1129.98436	484.98329	845.08453	-1207.53906	505.08778	793.25981	-1165.78651	-54.17684	1385.04883	-943.69743	-123.79153	1200.83122	-912.60406	-156.57063	1060.12459	-899.46396	-154.41403	958.43178	-861.39343	-69.60108	863.92418	-702.01897	-119.72983	812.70691	-753.11623	-126.38698	811.38359	-687.97211	228.75212	936.8103	-929.91829	-1.5892	937.31064	-977.83913	243.66457	967.83417	-1129.74937	68.8673	989.08401	-1150.5127	288.49709	675.51285	-995.78674	290.0156	523.63838	-841.24641	255.88169	340.07095	-802.59186	246.77338	155.79825	-856.09238	174.21949	74.53732	-906.43417	219.01068	79.61109	-714.739	49.07473	716.92337	-1219.16031	24.5271	500.99384	-1208.40424	87.60985	284.11436	-1240.11848	76.32965	140.91472	-1354.03305	141.83028	104.34003	-1409.96048	91.24599	61.92484	-1220.47768
69	2.277	227.54408	1573.24188	-796.16776	56.82157	1577.92694	-788.50304	232.58707	1549.22958	-945.33531	38.32622	1557.63885	-938.50922	222.6511	1337.59201	-844.8983	72.77806	1324.30435	-831.25847	193.64868	1406.18652	-984.68155	40.59658	1391.99966	-970.57381	128.50711	1237.40547	-1053.35754	151.09188	1260.15495	-809.50951	147.61056	1154.97261	-807.44301	335.01133	1375.9198	-914.83818	406.65695	1233.19824	-1009.66789	448.36853	1114.68651	-1072.59346	475.67017	991.88225	-1124.91173	454.3914	809.7644	-1096.49666	487.13497	832.30431	-1173.84605	509.69154	779.5018	-1134.80789	-54.98955	1366.0733	-884.83955	-126.77043	1182.12776	-850.83961	-162.15401	1044.56955	-831.45538	-159.14599	945.76843	-786.8898	-70.46565	863.13927	-623.53809	-121.89139	807.994	-669.52988	-127.54644	812.08595	-604.25262	226.1138	919.66713	-876.75545	-3.15656	922.59377	-927.31636	244.63163	947.02271	-1077.70943	69.83102	972.05063	-1099.70215	285.09333	655.17799	-939.02275	283.98184	510.72021	-776.00029	250.62504	339.66473	-706.9809	245.88047	148.7998	-719.82719	175.51996	58.9438	-755.76843	213.8991	98.79655	-565.42061	53.2928	715.28397	-1176.98509	23.04573	499.52843	-1183.44902	86.97396	284.37737	-1226.01311	76.35218	148.31768	-1348.46161	142.08454	114.98438	-1405.85144	91.43101	61.68053	-1220.8609
